<?xml version="1.0" encoding="utf-8"?>
<!-- Generator: Adobe Illustrator 26.4.1, SVG Export Plug-In . SVG Version: 6.00 Build 0)  -->
<svg version="1.1" id="Capa_1" xmlns="http://www.w3.org/2000/svg" xmlns:xlink="http://www.w3.org/1999/xlink" x="0px" y="0px"
	 viewBox="0 0 121.78 40" style="enable-background:new 0 0 121.78 40;" xml:space="preserve">
<style type="text/css">
	.st0{fill:#E74D2A;}
</style>
<g>
	<g>
		<path d="M48.42,11.44h3.35l5.38,9.94l5.27-9.94h3.36v17.44h-3.52V18.45h-0.07l-3.8,7.93h-2.57l-3.8-7.93h-0.06v10.43h-3.52V11.44z
			"/>
	</g>
	<g>
		<path d="M67.76,22.58c0-2.98,1.18-4.18,2.35-5.25c1.13-1.05,2.98-1.34,3.97-1.34c0.98,0,2.91,0.36,3.46,1.05l-0.43,2.38
			c-0.63-0.32-2.59-0.6-3.4-0.2c-0.81,0.4-2.31,0.95-2.31,3.37v0.01c0,2.42,1.5,2.97,2.31,3.37c0.81,0.4,2.96,0.07,3.59-0.24
			l0.23,2.42c-0.55,0.69-2.48,1.05-3.46,1.05c-0.99,0-2.84-0.29-3.97-1.34C68.95,26.77,67.76,25.57,67.76,22.58L67.76,22.58z"/>
	</g>
	<g>
		<path d="M81.49,10.61h3.73l-3.29,3.99l-2.12-0.03L81.49,10.61z"/>
	</g>
	<g>
		<g>
			<path d="M87.46,22.54c0-3.59,2.19-6.84,5.78-6.84c3.6,0,5.81,3.27,5.81,6.84c0,3.6-2.45,6.78-5.81,6.78
				C89.86,29.32,87.46,26.11,87.46,22.54z M95.62,22.54c0-2.08-0.88-3.61-2.38-3.61c-1.53,0-2.37,1.59-2.37,3.61
				c0,2.04,0.85,3.61,2.37,3.61C94.77,26.15,95.62,24.6,95.62,22.54z"/>
		</g>
	</g>
	<g>
		<g>
			<path d="M108.71,22.54c0-3.59,2.19-6.84,5.78-6.84s5.81,3.27,5.81,6.84c0,3.6-2.45,6.78-5.81,6.78
				C111.11,29.32,108.71,26.11,108.71,22.54z M116.87,22.54c0-2.08-0.88-3.61-2.38-3.61c-1.53,0-2.37,1.59-2.37,3.61
				c0,2.04,0.85,3.61,2.37,3.61C116.02,26.15,116.87,24.6,116.87,22.54z"/>
		</g>
	</g>
	<g>
		<path d="M102.29,11.26h2.18c0.35,0,0.63,0.28,0.63,0.63v13.87c0,0.6,0.51,0.66,1.15,0.66l0.55-0.04c0.82-0.04,0.69,0.78,0.69,1.12
			c0,0,0.09,1.06-0.13,1.47c-0.22,0.41-0.74,0.78-1.09,0.78l-1.49,0c-0.93,0-1.69,0.04-2.29-0.44c-0.63-0.48-0.83-1.72-0.83-2.87
			V11.89C101.66,11.55,101.94,11.26,102.29,11.26z"/>
	</g>
</g>
<g>
	<g>
		<path class="st0" d="M20.08,39.76C9.28,39.76,0.5,30.98,0.5,20.18S9.28,0.61,20.08,0.61s19.57,8.78,19.57,19.57
			S30.87,39.76,20.08,39.76z M20.08,2.4c-9.8,0-17.78,7.98-17.78,17.78s7.98,17.78,17.78,17.78s17.78-7.98,17.78-17.78
			S29.88,2.4,20.08,2.4z"/>
	</g>
	<polygon class="st0" points="25.4,9.52 20.21,24.79 14.77,9.55 14.76,9.52 10.03,9.52 10.03,29.5 18.17,29.5 17.38,27.14 
		12.26,27.14 12.26,11.61 13.1,11.61 19.44,29.45 20.71,29.45 27.05,11.61 27.79,11.61 27.79,27.14 23.11,27.14 22.3,29.5 
		30.03,29.5 30.03,9.52 	"/>
</g>
</svg>
